# xmcd
#
# Track frame offsets:
#	150
#	19087
#	32867
#	47020
#	60107
#	74331
#	89622
#	107437
#	127501
#	145272
#	159244
#	172420
#	186678
#	207628
#
# Disc length: 3028 seconds
#
# Revision: 0
# Processed by: cddbd v1.5.1PL0 Copyright (c) Steve Scherf et al.
# Submitted via: EasyCDDAExtractor 8.0.2.1
#
DISCID=c50bd20e
DTITLE=Various Artist - Mr Music Country 05 2005
DYEAR=1900
DGENRE=Country
TTITLE0=Aaron Watson - What she don't know
TTITLE1=Deryl Dodd - Never again
TTITLE2=John Martin - Heroes
TTITLE3=June Carter Cash and Johnny Cash - The road to Kaintuck
TTITLE4=Ricky Calmbach - Texas standard time
TTITLE5=Becky Hobbs - Mama saw Paris
TTITLE6=Laurie Lewis and Tom Rozum - Alaska
TTITLE7=Jerry Sires Band - I'll break out again
TTITLE8=Tom Russell - Grapevine
TTITLE9=Sisters Wade - Trouble maker
TTITLE10=Lance Miller - Shave this stranger's face
TTITLE11=Anne Kristin - I remember Patsy Cline
TTITLE12=Billy O'Rourke - Who's that gringo
TTITLE13=Jarrod Birmingham - Whiskey and lies
EXTD=
EXTT0=
EXTT1=
EXTT2=
EXTT3=
EXTT4=
EXTT5=
EXTT6=
EXTT7=
EXTT8=
EXTT9=
EXTT10=
EXTT11=
EXTT12=
EXTT13=
PLAYORDER=
